<?xml version="1.0" encoding="utf-8"?>
<!-- Generator: Adobe Illustrator 24.1.0, SVG Export Plug-In . SVG Version: 6.00 Build 0)  -->
<svg version="1.1" id="Ebene_1" xmlns="http://www.w3.org/2000/svg" xmlns:xlink="http://www.w3.org/1999/xlink" x="0px" y="0px"
	 viewBox="0 0 201.7 201.35" style="enable-background:new 0 0 201.7 201.35;" xml:space="preserve">
<style type="text/css">
	.st0{fill:#FFFFFF;}
</style>
<g>
	<g>
		<path class="st0" d="M201.7,201.35c-65.95,0-133.9,0-199.85,0c-0.56,0-1.11,0-1.78,0C0.04,200.9,0,200.52,0,200.13
			C0,133.62,0,67.11,0,0.6C0,0.4,0.01,0.2,0.02,0c67.12,0,135.24,0,202.36,0L201.7,201.35z M16.4,101.8
			c7.36,7.56,14.61,15.01,21.87,22.44c8.32,8.53,16.66,17.04,24.98,25.57c12.98,13.31,25.96,26.63,38.92,39.96
			c0.57,0.59,1.16,0.83,1.99,0.83c28.4-0.02,56.8-0.02,85.19-0.02c0.42,0,0.85,0,1.29,0c0-60.01,0-119.87,0-179.8
			c-0.45,0-0.81,0-1.16,0c-27.32,0-54.64,0-81.95-0.02c-0.8,0-1.33,0.26-1.87,0.81c-7.78,7.89-15.58,15.76-23.37,23.63
			C70.3,47.31,58.32,59.42,46.33,71.53c-9.48,9.57-18.98,19.14-28.47,28.71C17.39,100.72,16.94,101.22,16.4,101.8z M10.82,92.06
			c26.89-27.16,53.56-54.1,80.4-81.21c-26.95,0-53.64,0-80.4,0C10.82,37.85,10.82,64.79,10.82,92.06z M87.89,190.54
			c-25.77-26.42-51.33-52.62-77.04-78.98c0,26.54,0,52.75,0,78.98C36.5,190.54,62.04,190.54,87.89,190.54z"/>
	</g>
</g>
</svg>
